<?xml version="1.0" encoding="utf-8"?>
<!-- Generator: Adobe Illustrator 16.0.0, SVG Export Plug-In . SVG Version: 6.00 Build 0)  -->
<!DOCTYPE svg PUBLIC "-//W3C//DTD SVG 1.1//EN" "http://www.w3.org/Graphics/SVG/1.1/DTD/svg11.dtd">
<svg version="1.1" id="Capa_1" xmlns="http://www.w3.org/2000/svg" xmlns:xlink="http://www.w3.org/1999/xlink" x="0px" y="0px"
	 width="172px" height="172px" viewBox="0 0 172 172" enable-background="new 0 0 172 172" xml:space="preserve">
<g>
	<rect x="37" y="52" fill="#FFFFFF" width="90" height="71"/>
	<path fill="#006AB0" d="M38,113.113c0,4.803,0.111,8.887-0.459,8.887H24.844c-0.572,0-1.844-4.083-1.844-8.887V60.788
		C23,55.986,24.271,53,24.844,53h12.697C38.111,53,38,55.986,38,60.788V113.113z"/>
	<path fill="#006AB0" d="M149,113.113c0,4.803-1.383,8.887-2.314,8.887h-20.723c-0.932,0-1.963-4.083-1.963-8.887V60.788
		c0-4.802,1.031-7.788,1.963-7.788h20.723c0.932,0,2.314,2.986,2.314,7.788V113.113z"/>
	<g>
		<g>
			<g>
				<path fill="#006AB0" d="M20.879,58.018v55.964c0,5.26,4.279,9.54,9.539,9.54h111.164c5.26,0,9.539-4.28,9.539-9.54V58.018
					c0-5.261-4.279-9.54-9.539-9.54H30.418C25.158,48.478,20.879,52.757,20.879,58.018z M124.412,52.294v54.057
					c0,1.054,0.855,1.907,1.908,1.907s1.906-0.854,1.906-1.907V52.294h13.355c3.156,0,5.725,2.568,5.725,5.724v55.964
					c0,3.155-2.568,5.723-5.725,5.723h-13.355v-5.723c0-1.054-0.854-1.908-1.906-1.908s-1.908,0.854-1.908,1.908v5.723H39.957
					V52.294H124.412z M36.141,52.294v67.412h-5.723c-3.156,0-5.725-2.568-5.725-5.723V58.018c0-3.156,2.568-5.724,5.725-5.724
					H36.141z"/>
			</g>
		</g>
		<g>
			<g>
				<path fill="#FFFFFF" d="M28.51,78.369V86c0,1.054,0.855,1.907,1.908,1.907s1.906-0.854,1.906-1.907v-7.631
					c0-1.054-0.854-1.908-1.906-1.908S28.51,77.315,28.51,78.369z"/>
			</g>
		</g>
		<g>
			<g>
				<path fill="#FFFFFF" d="M132.043,86c0,3.156,2.568,5.724,5.725,5.724s5.723-2.568,5.723-5.724c0-3.155-2.566-5.724-5.723-5.724
					S132.043,82.845,132.043,86z M139.676,86c0,1.052-0.855,1.907-1.908,1.907s-1.908-0.855-1.908-1.907
					c0-1.052,0.855-1.908,1.908-1.908S139.676,84.948,139.676,86z"/>
			</g>
		</g>
		<g>
			<g>
				<circle fill="#FFFFFF" cx="30.417" cy="93.632" r="1.907"/>
			</g>
		</g>
	</g>
	<g>
		<path fill="#006AB0" d="M62.268,65.716c0.898-0.195,2.115-0.316,3.33-0.316c1.896,0,3.379,0.267,4.449,1.264
			c0.971,0.851,1.41,2.212,1.41,3.598c0,1.775-0.535,3.014-1.385,3.938c-1.023,1.069-2.676,1.556-3.988,1.556
			c-0.219,0-0.438,0-0.631,0v6.102h-3.186V65.716z M65.453,73.154c0.145,0.047,0.314,0.047,0.51,0.047
			c1.604,0,2.334-1.142,2.334-2.673c0-1.435-0.584-2.552-2.068-2.552c-0.289,0-0.582,0.048-0.775,0.121V73.154z"/>
		<path fill="#006AB0" d="M74.959,78.113l-0.73,3.744h-3.086l3.547-16.385h3.818l3.184,16.385h-3.086l-0.707-3.744H74.959z
			 M77.607,75.633l-0.535-3.427c-0.17-0.997-0.389-2.625-0.533-3.719h-0.072c-0.172,1.094-0.414,2.795-0.586,3.744l-0.607,3.402
			H77.607z"/>
		<path fill="#006AB0" d="M92.195,81.419c-0.705,0.292-2.213,0.583-3.404,0.583c-1.873,0-3.281-0.535-4.375-1.629
			c-1.41-1.362-2.164-3.792-2.115-6.611c0.072-5.957,3.477-8.437,6.951-8.437c1.24,0,2.166,0.243,2.674,0.487l-0.559,2.746
			c-0.461-0.242-1.068-0.364-1.871-0.364c-2.164,0-3.889,1.483-3.889,5.761c0,3.938,1.531,5.348,3.014,5.348
			c0.291,0,0.512-0.024,0.631-0.072v-3.963h-1.455v-2.601h4.398V81.419z"/>
		<path fill="#006AB0" d="M104.252,73.372c0,6.175-2.188,8.679-5.297,8.679c-3.723,0-5.18-3.938-5.18-8.436
			c0-4.472,1.775-8.338,5.398-8.338C103.135,65.277,104.252,69.629,104.252,73.372z M97.082,73.664c0,3.72,0.705,5.615,1.992,5.615
			c1.338,0,1.85-2.43,1.85-5.761c0-2.869-0.439-5.47-1.873-5.47C97.787,68.048,97.082,70.14,97.082,73.664z"/>
		<path fill="#006AB0" d="M67.566,102.612c-0.074-1.556-0.195-3.67-0.146-5.421h-0.072c-0.291,1.751-0.73,3.769-1.045,5.032
			l-1.41,5.859h-2.262l-1.359-5.762c-0.316-1.313-0.756-3.354-0.998-5.129h-0.072c-0.049,1.775-0.146,3.841-0.244,5.47l-0.266,5.688
			h-2.748l1.191-16.385h3.354l1.313,5.932c0.465,2.067,0.877,3.89,1.168,5.737h0.049c0.242-1.822,0.607-3.67,1.045-5.737
			l1.289-5.932h3.354l0.998,16.385h-2.846L67.566,102.612z"/>
		<path fill="#006AB0" d="M82.713,99.865c0,6.175-2.189,8.679-5.299,8.679c-3.719,0-5.18-3.938-5.18-8.436
			c0-4.473,1.775-8.338,5.398-8.338C81.594,91.77,82.713,96.122,82.713,99.865z M75.541,100.157c0,3.719,0.705,5.616,1.994,5.616
			c1.336,0,1.848-2.432,1.848-5.762c0-2.868-0.436-5.469-1.871-5.469C76.246,94.542,75.541,96.631,75.541,100.157z M81.352,88.343
			l-2.967,2.747h-2.26l1.994-2.747H81.352z"/>
		<path fill="#006AB0" d="M87.016,108.349l-3.668-16.385h3.521l1.168,7.075c0.293,1.75,0.631,3.768,0.852,5.688h0.049
			c0.219-1.945,0.486-3.914,0.777-5.762l1.117-7.002h3.502l-3.744,16.385H87.016z"/>
		<path fill="#006AB0" d="M98.904,91.964v16.385h-3.184V91.964H98.904z"/>
		<path fill="#006AB0" d="M101.75,91.964h3.184v13.687h4.207v2.698h-7.391V91.964z"/>
	</g>
</g>
</svg>
