<?xml version="1.0" encoding="utf-8"?>
<!-- Generator: Adobe Illustrator 16.0.0, SVG Export Plug-In . SVG Version: 6.00 Build 0)  -->
<!DOCTYPE svg PUBLIC "-//W3C//DTD SVG 1.1//EN" "http://www.w3.org/Graphics/SVG/1.1/DTD/svg11.dtd">
<svg version="1.1" id="Capa_1" xmlns="http://www.w3.org/2000/svg" xmlns:xlink="http://www.w3.org/1999/xlink" x="0px" y="0px"
	 width="172px" height="172px" viewBox="0 0 172 172" enable-background="new 0 0 172 172" xml:space="preserve">
<g>
	<g>
		<path fill-rule="evenodd" clip-rule="evenodd" fill="#2C3F89" d="M43.087,119.493c3.764,0,7.235,2.042,6.761,7.131
			c-0.564,6.034-3.814,9.393-8.929,9.407h-4.462c-0.644,0-0.952,0.523-1.119,1.599l-0.863,5.492
			c-0.129,0.828-0.554,1.237-1.184,1.237h-4.156c-0.662,0-0.893-0.423-0.744-1.369l3.433-22.01c0.169-1.083,0.583-1.486,1.318-1.486
			H43.087L43.087,119.493z M36.318,131.275h3.385c2.115-0.078,3.522-1.543,3.664-4.188c0.088-1.633-1.016-2.801-2.771-2.792
			l-3.187,0.013L36.318,131.275L36.318,131.275z M61.141,142.673c0.38-0.346,0.767-0.526,0.712-0.101l-0.136,1.023
			c-0.07,0.529,0.143,0.814,0.638,0.814h3.691c0.621,0,0.923-0.252,1.077-1.212l2.274-14.277c0.113-0.716-0.06-1.067-0.604-1.067
			h-4.058c-0.365,0-0.543,0.205-0.64,0.762l-0.149,0.879c-0.079,0.459-0.29,0.538-0.484,0.077c-0.689-1.632-2.446-2.361-4.908-2.31
			c-5.693,0.116-9.531,4.438-9.941,9.978c-0.318,4.286,2.754,7.653,6.8,7.653C58.35,144.891,59.663,144.013,61.141,142.673
			L61.141,142.673z M58.053,140.48c-2.451,0-4.158-1.957-3.802-4.352c0.356-2.396,2.646-4.351,5.097-4.351
			c2.449,0,4.158,1.954,3.802,4.351C62.794,138.524,60.503,140.48,58.053,140.48L58.053,140.48z M76.625,127.807h-3.729
			c-0.772,0-1.085,0.565-0.84,1.284l4.647,13.608l-4.581,6.475c-0.382,0.539-0.085,1.034,0.454,1.034h4.206
			c0.628,0,0.934-0.16,1.251-0.613l14.292-20.503c0.439-0.631,0.231-1.292-0.489-1.292l-3.977-0.005
			c-0.686-0.002-0.958,0.271-1.35,0.838l-5.962,8.648l-2.653-8.665C77.732,128.083,77.343,127.807,76.625,127.807z"/>
		<path fill-rule="evenodd" clip-rule="evenodd" fill="#449BCB" d="M107.198,119.493c3.767,0,7.236,2.042,6.762,7.131
			c-0.563,6.034-3.816,9.393-8.929,9.407h-4.464c-0.64,0-0.95,0.523-1.119,1.599l-0.859,5.492c-0.131,0.828-0.557,1.237-1.187,1.237
			h-4.153c-0.664,0-0.894-0.423-0.746-1.369l3.432-22.01c0.171-1.083,0.585-1.486,1.318-1.486H107.198L107.198,119.493z
			 M100.431,131.275h3.385c2.115-0.078,3.521-1.543,3.662-4.188c0.088-1.633-1.014-2.801-2.769-2.792l-3.188,0.013L100.431,131.275
			L100.431,131.275z M125.254,142.673c0.378-0.346,0.766-0.526,0.711-0.101l-0.136,1.023c-0.071,0.529,0.143,0.814,0.638,0.814
			h3.691c0.619,0,0.923-0.252,1.076-1.212l2.274-14.277c0.115-0.716-0.058-1.067-0.604-1.067h-4.056
			c-0.367,0-0.544,0.205-0.64,0.762l-0.151,0.879c-0.079,0.459-0.287,0.538-0.483,0.077c-0.689-1.632-2.446-2.361-4.908-2.31
			c-5.693,0.116-9.532,4.438-9.941,9.978c-0.318,4.286,2.754,7.653,6.801,7.653C122.461,144.891,123.774,144.013,125.254,142.673
			L125.254,142.673z M122.165,140.48c-2.45,0-4.159-1.957-3.802-4.352c0.355-2.396,2.646-4.351,5.097-4.351
			c2.45,0,4.157,1.954,3.802,4.351C126.904,138.524,124.615,140.48,122.165,140.48L122.165,140.48z M139.19,144.436h-4.261
			c-0.338,0-0.574-0.267-0.521-0.589l3.747-23.713c0.051-0.324,0.369-0.589,0.708-0.589h4.26c0.339,0,0.572,0.265,0.522,0.589
			l-3.747,23.713C139.847,144.168,139.528,144.436,139.19,144.436z"/>
	</g>
	<g>
		<path fill-rule="evenodd" clip-rule="evenodd" fill="#449BCB" d="M80.8,41.776h23.951c12.855,0,17.698,6.508,16.949,16.089
			c-1.231,15.786-10.779,24.518-23.44,24.518h-6.393c-1.734,0-2.901,1.15-3.375,4.264l-2.744,18.102
			c-0.178,1.177-0.797,1.868-1.727,1.951H69.005c-1.411,0-1.913-1.083-1.544-3.423l9.17-58.066
			C76.996,42.886,78.273,41.776,80.8,41.776z"/>
		<path fill-rule="evenodd" clip-rule="evenodd" fill="#2C3F89" d="M65.829,21.793h23.97c6.754,0,14.764,0.221,20.118,4.946
			c3.579,3.154,5.457,8.184,5.025,13.584c-1.472,18.302-12.422,28.555-27.104,28.555H76.014c-2.012,0-3.344,1.335-3.915,4.947
			l-3.298,20.989c-0.214,1.359-0.804,2.165-1.881,2.262H52.151c-1.64,0-2.219-1.253-1.792-3.967l10.635-67.332
			C61.42,23.078,62.894,21.793,65.829,21.793z"/>
		<path fill-rule="evenodd" clip-rule="evenodd" fill="#26317C" d="M72.444,71.709l4.187-26.498
			c0.365-2.325,1.643-3.435,4.169-3.435h23.951c3.962,0,7.166,0.618,9.678,1.763c-2.407,16.289-12.943,25.339-26.742,25.339H75.863
			C74.308,68.878,73.141,69.68,72.444,71.709z"/>
	</g>
</g>
</svg>
