<?xml version="1.0" encoding="utf-8"?>
<!-- Generator: Adobe Illustrator 16.0.0, SVG Export Plug-In . SVG Version: 6.00 Build 0)  -->
<!DOCTYPE svg PUBLIC "-//W3C//DTD SVG 1.1//EN" "http://www.w3.org/Graphics/SVG/1.1/DTD/svg11.dtd">
<svg version="1.1" id="Capa_1" xmlns="http://www.w3.org/2000/svg" xmlns:xlink="http://www.w3.org/1999/xlink" x="0px" y="0px"
	 width="172px" height="172px" viewBox="0 0 172 172" enable-background="new 0 0 172 172" xml:space="preserve">
<g>
	<g>
		<path d="M57.426,150.098v-4.626c0.104-1.514-1.036-2.825-2.549-2.93c-0.117-0.008-0.234-0.008-0.351-0.002
			c-1.038-0.068-2.031,0.435-2.59,1.311c-0.511-0.851-1.446-1.353-2.437-1.311c-0.864-0.044-1.685,0.373-2.16,1.096v-0.911h-1.604
			v7.373h1.619v-4.056c-0.129-0.946,0.532-1.816,1.478-1.946c0.108-0.015,0.217-0.02,0.327-0.014c1.065,0,1.604,0.694,1.604,1.944
			v4.102h1.62v-4.086c-0.125-0.95,0.544-1.822,1.495-1.946c0.103-0.015,0.206-0.019,0.31-0.014c1.095,0,1.62,0.694,1.62,1.944v4.102
			L57.426,150.098z M81.386,142.725h-2.637v-2.235H77.13v2.235h-1.466v1.466h1.496v3.394c0,1.712,0.663,2.729,2.561,2.729
			c0.709,0.003,1.404-0.195,2.005-0.57l-0.463-1.373c-0.43,0.257-0.918,0.4-1.418,0.416c-0.771,0-1.064-0.494-1.064-1.232v-3.363
			h2.622L81.386,142.725z M95.068,142.54c-0.797-0.023-1.543,0.391-1.944,1.08v-0.896h-1.589v7.373h1.604v-4.133
			c0-1.219,0.524-1.897,1.542-1.897c0.343-0.005,0.684,0.058,1.003,0.185l0.493-1.542c-0.367-0.132-0.752-0.199-1.141-0.201
			L95.068,142.54z M74.384,143.312c-0.908-0.54-1.952-0.808-3.007-0.771c-1.867,0-3.084,0.895-3.084,2.36
			c0,1.203,0.895,1.943,2.545,2.174l0.771,0.108c0.879,0.124,1.295,0.354,1.295,0.771c0,0.57-0.585,0.894-1.68,0.894
			c-0.881,0.026-1.745-0.245-2.453-0.771l-0.771,1.249c0.935,0.653,2.054,0.988,3.193,0.956c2.128,0,3.362-1.002,3.362-2.405
			c0-1.404-0.972-1.974-2.576-2.205l-0.771-0.108c-0.693-0.092-1.249-0.231-1.249-0.725c0-0.494,0.524-0.864,1.403-0.864
			c0.813,0.009,1.609,0.228,2.314,0.633L74.384,143.312z M117.347,142.54c-0.796-0.023-1.542,0.391-1.943,1.08v-0.896h-1.588v7.373
			h1.604v-4.133c0-1.219,0.525-1.897,1.542-1.897c0.343-0.005,0.684,0.058,1.003,0.185l0.493-1.542
			c-0.367-0.132-0.752-0.199-1.141-0.201L117.347,142.54z M96.679,146.396c-0.076,2.057,1.529,3.784,3.586,3.86
			c0.115,0.004,0.232,0.002,0.347-0.004c0.963,0.049,1.91-0.265,2.653-0.879l-0.771-1.296c-0.556,0.423-1.231,0.656-1.929,0.663
			c-1.304-0.105-2.274-1.247-2.168-2.55c0.093-1.158,1.012-2.075,2.168-2.17c0.697,0.008,1.373,0.241,1.929,0.664l0.771-1.296
			c-0.744-0.614-1.69-0.929-2.653-0.88c-2.054-0.115-3.813,1.455-3.929,3.509c-0.006,0.115-0.008,0.231-0.004,0.348V146.396z
			 M111.702,146.396v-3.671h-1.604v0.896c-0.552-0.712-1.414-1.113-2.313-1.08c-2.13,0-3.855,1.727-3.855,3.855
			c0,2.13,1.725,3.856,3.855,3.856c0.9,0.033,1.761-0.369,2.313-1.08v0.895h1.604V146.396z M105.733,146.396
			c0.072-1.229,1.127-2.165,2.356-2.093c1.229,0.071,2.166,1.127,2.093,2.355c-0.068,1.174-1.038,2.092-2.212,2.098
			c-1.223,0.015-2.226-0.963-2.242-2.185C105.728,146.512,105.729,146.454,105.733,146.396z M86.376,142.54
			c-2.129,0.029-3.831,1.78-3.802,3.91c0.031,2.129,1.78,3.831,3.91,3.802l0,0c1.109,0.058,2.201-0.3,3.061-1.002l-0.771-1.188
			c-0.608,0.488-1.363,0.761-2.144,0.771c-1.102,0.095-2.08-0.705-2.206-1.805H89.9c0-0.2,0-0.401,0-0.617
			c0-2.313-1.434-3.855-3.5-3.855L86.376,142.54z M86.376,143.975c1.009-0.021,1.845,0.779,1.867,1.788c0,0,0,0.001,0,0.002h-3.856
			c0.059-1.03,0.928-1.825,1.959-1.79H86.376z M126.563,146.411v-6.647h-1.542v3.856c-0.553-0.712-1.413-1.113-2.313-1.08
			c-2.13,0-3.856,1.727-3.856,3.855c0,2.13,1.726,3.856,3.856,3.856c0.9,0.033,1.76-0.369,2.313-1.08v0.895h1.542V146.411z
			 M129.238,149.025c0.101-0.001,0.2,0.018,0.293,0.054c0.088,0.036,0.17,0.089,0.239,0.154c0.068,0.066,0.122,0.146,0.162,0.232
			c0.079,0.182,0.079,0.388,0,0.57c-0.04,0.086-0.094,0.165-0.162,0.23c-0.069,0.066-0.15,0.119-0.239,0.154
			c-0.093,0.042-0.192,0.063-0.293,0.063c-0.298-0.003-0.569-0.176-0.694-0.447c-0.078-0.183-0.078-0.389,0-0.57
			c0.04-0.087,0.094-0.166,0.163-0.232c0.069-0.065,0.15-0.118,0.239-0.154c0.1-0.04,0.208-0.058,0.316-0.054H129.238z
			 M129.238,150.329c0.077,0,0.153-0.016,0.224-0.047c0.066-0.029,0.126-0.07,0.177-0.123c0.2-0.218,0.2-0.553,0-0.771
			c-0.051-0.052-0.111-0.095-0.177-0.124c-0.071-0.031-0.147-0.047-0.224-0.047c-0.077,0.001-0.153,0.018-0.224,0.047
			c-0.069,0.028-0.132,0.07-0.185,0.124c-0.2,0.218-0.2,0.553,0,0.771c0.052,0.053,0.115,0.095,0.185,0.123
			c0.078,0.034,0.162,0.05,0.247,0.047H129.238z M129.285,149.411c0.072-0.003,0.143,0.019,0.201,0.062
			c0.047,0.04,0.073,0.101,0.069,0.162c0.002,0.052-0.018,0.102-0.053,0.139c-0.045,0.041-0.102,0.065-0.162,0.069l0.224,0.255
			h-0.178l-0.208-0.255h-0.07v0.255h-0.146v-0.679L129.285,149.411z M129.115,149.543v0.185h0.169c0.03,0.009,0.063,0.009,0.093,0
			c0.011-0.021,0.011-0.048,0-0.069c0.011-0.021,0.011-0.048,0-0.069c-0.03-0.009-0.063-0.009-0.093,0L129.115,149.543z
			 M120.632,146.411c0.072-1.229,1.127-2.166,2.356-2.094c1.229,0.072,2.167,1.128,2.094,2.356
			c-0.069,1.173-1.038,2.092-2.213,2.097c-1.223,0.016-2.226-0.963-2.242-2.184C120.627,146.528,120.628,146.47,120.632,146.411z
			 M66.472,146.411v-3.687h-1.604v0.896c-0.553-0.712-1.413-1.113-2.313-1.08c-2.13,0-3.856,1.727-3.856,3.855
			c0,2.13,1.726,3.856,3.856,3.856c0.9,0.033,1.761-0.369,2.313-1.08v0.895h1.604V146.411z M60.503,146.411
			c0.072-1.229,1.127-2.166,2.356-2.094c1.229,0.072,2.166,1.128,2.094,2.356c-0.069,1.173-1.038,2.092-2.213,2.097
			c-1.222,0.024-2.232-0.946-2.257-2.168c-0.001-0.064,0-0.128,0.005-0.191H60.503z"/>
		<rect x="73.853" y="86.545" fill="#FF5F00" width="24.292" height="43.656"/>
		<path id="_Path_" fill="#FF0015" d="M75.395,108.377c-0.008-8.521,3.901-16.571,10.604-21.832
			c-12.055-9.474-29.509-7.382-38.983,4.674c-9.475,12.056-7.382,29.509,4.673,38.982c10.068,7.912,24.241,7.912,34.31,0
			C79.298,124.942,75.388,116.896,75.395,108.377z"/>
		<path fill="#FF9F00" d="M130.92,108.377c-0.001,15.333-12.431,27.763-27.764,27.762c-6.223,0-12.265-2.091-17.157-5.938
			c12.055-9.474,14.148-26.927,4.674-38.982c-1.366-1.738-2.936-3.308-4.674-4.674c12.053-9.477,29.506-7.388,38.984,4.667
			c3.846,4.892,5.937,10.934,5.938,17.157V108.377z"/>
		<path d="M128.266,125.574v-0.894h0.363v-0.186h-0.918v0.186h0.393v0.894H128.266z M130.049,125.574v-1.079h-0.278l-0.324,0.771
			l-0.324-0.771h-0.247v1.079h0.2v-0.809l0.301,0.701h0.208l0.301-0.701v0.816L130.049,125.574z"/>
	</g>
	<g>
		<g>
			<polygon fill="#002897" points="68.91,56.479 74.768,22.114 84.134,22.114 78.273,56.479 			"/>
			<path fill="#002897" d="M112.246,22.96c-1.855-0.697-4.763-1.444-8.395-1.444c-9.256,0-15.775,4.661-15.831,11.341
				c-0.052,4.938,4.654,7.693,8.208,9.337c3.646,1.685,4.871,2.759,4.854,4.263c-0.022,2.304-2.911,3.356-5.604,3.356
				c-3.749,0-5.741-0.521-8.817-1.803l-1.207-0.547l-1.314,7.693c2.188,0.959,6.234,1.791,10.435,1.834
				c9.846,0,16.238-4.608,16.311-11.741c0.036-3.909-2.46-6.885-7.864-9.337c-3.273-1.59-5.279-2.651-5.258-4.261
				c0-1.428,1.697-2.956,5.364-2.956c3.063-0.047,5.281,0.621,7.011,1.316l0.839,0.397L112.246,22.96"/>
			<path fill="#002897" d="M136.267,22.146h-7.238c-2.242,0-3.92,0.612-4.905,2.85L110.212,56.49h9.836c0,0,1.608-4.235,1.973-5.164
				c1.074,0,10.63,0.014,11.996,0.014c0.28,1.203,1.14,5.15,1.14,5.15h8.691L136.267,22.146 M124.716,44.296
				c0.774-1.98,3.731-9.606,3.731-9.606c-0.055,0.092,0.77-1.989,1.243-3.279l0.633,2.963c0,0,1.793,8.203,2.168,9.923H124.716z"/>
			<path fill="#002897" d="M61.055,22.138l-9.171,23.436l-0.978-4.762c-1.707-5.491-7.026-11.439-12.973-14.416l8.385,30.054
				l9.911-0.012l14.747-34.3H61.055"/>
			<path fill="#002897" d="M43.376,22.118H28.271l-0.119,0.714c11.751,2.845,19.526,9.719,22.754,17.979l-3.284-15.793
				C47.055,22.843,45.41,22.193,43.376,22.118"/>
		</g>
	</g>
</g>
</svg>
