<?xml version="1.0" encoding="utf-8"?>
<!-- Generator: Adobe Illustrator 16.0.0, SVG Export Plug-In . SVG Version: 6.00 Build 0)  -->
<!DOCTYPE svg PUBLIC "-//W3C//DTD SVG 1.1//EN" "http://www.w3.org/Graphics/SVG/1.1/DTD/svg11.dtd">
<svg version="1.1" id="Capa_1" xmlns="http://www.w3.org/2000/svg" xmlns:xlink="http://www.w3.org/1999/xlink" x="0px" y="0px"
	 width="172px" height="172px" viewBox="0 0 172 172" enable-background="new 0 0 172 172" xml:space="preserve">
<path fill-rule="evenodd" clip-rule="evenodd" fill="#6C1CCF" d="M75.085,86.074c-1.398-3.713-4.532-6.296-8.18-6.296
	c-3.645,0-6.777,2.583-8.176,6.296H75.085z M88.531,59.469h8.765v38.545c0,4.088,4.361,2.941,4.361,2.941l2.331,6.967
	c-1.924,0.732-4.622,1.359-7.89,1.087c-6.868-0.571-7.567-7.525-7.567-7.525V59.469z M148.085,86.074
	c-1.398-3.713-4.53-6.296-8.175-6.296c-3.645,0-6.784,2.583-8.179,6.296H148.085z M139.624,71.848
	c9.933,0,17.986,8.493,17.986,18.968c0,0.943-0.067,1.872-0.193,2.781h-26.05c1.143,4.313,4.534,7.438,8.543,7.438
	c0.252,0,0.504-0.013,0.757-0.041c0.208,0.015,0.421,0.024,0.631,0.024c3.449,0,6.507-1.733,8.386-4.396h-0.003l6.379,5.187
	c-3.437,4.826-9.083,7.974-15.458,7.974c-9.531,0-17.418-7.028-18.762-16.186h-0.01c-0.131-0.909-0.193-1.837-0.193-2.781
	C121.637,80.341,129.689,71.848,139.624,71.848z M106.437,101.485c0,0,0.697,6.955,7.564,7.525c4.573,0.378,8.022-0.999,9.815-1.96
	l-4.255-6.094c0,0-4.367,1.146-4.367-2.941V59.469h-8.758V101.485z M27.873,55.33h8.759v8.508h12.871v6.867l-1.302,1.648
	L26.673,99.645h19.581c0.871,3.275,3.326,6.387,5.65,8.712l-15.272-0.081v8.394h-8.759v-8.44l-13.482-0.07v-7.082l22.657-28.725
	H15.006v-8.516h12.867V55.33z M66.62,71.848c9.937,0,17.985,8.493,17.985,18.968c0,0.943-0.063,1.872-0.192,2.781H58.365
	c1.141,4.313,4.535,7.438,8.54,7.438c0.258,0,0.508-0.013,0.758-0.041c0.211,0.015,0.422,0.024,0.635,0.024
	c3.448,0,6.505-1.733,8.382-4.396l6.379,5.187c-3.438,4.826-9.079,7.974-15.457,7.974c-9.528,0-17.418-7.028-18.762-16.186h-0.01
	c-0.129-0.909-0.193-1.837-0.193-2.781C48.638,80.341,56.687,71.848,66.62,71.848z"/>
</svg>
